<svg width="48" height="40" viewBox="0 0 48 40" fill="none" xmlns="http://www.w3.org/2000/svg">
<path d="M42.9581 9.9271C42.9871 10.3471 42.9871 10.7671 42.9871 11.191C42.9871 24.1065 33.1548 39.0019 15.1761 39.0019V38.9942C9.86516 39.0019 4.66451 37.4806 0.193542 34.6123C0.965801 34.7052 1.74193 34.7516 2.51999 34.7536C6.92128 34.7574 11.1968 33.2806 14.6593 30.5613C10.4768 30.4819 6.80903 27.7548 5.52774 23.7736C6.9929 24.0561 8.50257 23.9981 9.94064 23.6052C5.38064 22.6839 2.09999 18.6774 2.09999 14.0245C2.09999 13.9819 2.09999 13.9413 2.09999 13.9006C3.4587 14.6574 4.97999 15.0774 6.53612 15.1239C2.24128 12.2536 0.917413 6.54 3.51096 2.07291C8.47354 8.17936 15.7955 11.8916 23.6555 12.2845C22.8677 8.88968 23.9439 5.33226 26.4832 2.94581C30.42 -0.754836 36.6116 -0.565158 40.3123 3.36968C42.5013 2.93807 44.5993 2.13484 46.5193 0.996777C45.7897 3.25936 44.2626 5.18129 42.2226 6.40258C44.16 6.1742 46.0529 5.65549 47.8355 4.86387C46.5232 6.83033 44.8703 8.54323 42.9581 9.9271Z" fill="#1D9BF0"/>
</svg>
